<svg width="245" height="52" viewBox="0 0 245 52" fill="none" xmlns="http://www.w3.org/2000/svg">
<path d="M69.368 33.9999V17.1999H74.024L82.568 27.4239H80.408V17.1999H85.928V33.9999H81.272L72.728 23.7759H74.888V33.9999H69.368ZM93.9371 24.3519H101.329V28.6239H93.9371V24.3519ZM94.3211 33.9999H88.6571V17.1999H102.313V21.4719H94.3211V33.9999ZM107.868 33.9999V21.5919H102.948V17.1999H118.452V21.5919H113.532V33.9999H107.868ZM135.83 34.3839C134.47 34.3839 133.214 34.1759 132.062 33.7599C130.926 33.3279 129.934 32.7199 129.086 31.9359C128.254 31.1519 127.606 30.2239 127.142 29.1519C126.678 28.0799 126.446 26.8959 126.446 25.5999C126.446 24.3039 126.678 23.1199 127.142 22.0479C127.606 20.9759 128.262 20.0479 129.11 19.2639C129.958 18.4799 130.958 17.8799 132.11 17.4639C133.278 17.0319 134.558 16.8159 135.95 16.8159C137.614 16.8159 139.094 17.0959 140.39 17.6559C141.702 18.2159 142.782 19.0159 143.63 20.0559L140.006 23.2479C139.478 22.6399 138.902 22.1839 138.278 21.8799C137.67 21.5599 136.99 21.3999 136.238 21.3999C135.614 21.3999 135.046 21.4959 134.534 21.6879C134.038 21.8799 133.614 22.1599 133.262 22.5279C132.91 22.8959 132.638 23.3359 132.446 23.8479C132.254 24.3599 132.158 24.9439 132.158 25.5999C132.158 26.2239 132.254 26.7999 132.446 27.3279C132.638 27.8399 132.91 28.2799 133.262 28.6479C133.614 29.0159 134.03 29.3039 134.51 29.5119C135.006 29.7039 135.558 29.7999 136.166 29.7999C136.806 29.7999 137.43 29.6959 138.038 29.4879C138.646 29.2639 139.294 28.8879 139.982 28.3599L143.15 32.2479C142.126 32.9359 140.958 33.4639 139.646 33.8319C138.334 34.1999 137.062 34.3839 135.83 34.3839ZM138.23 31.5279V25.1439H143.15V32.2479L138.23 31.5279ZM145.563 33.9999V17.1999H153.651C155.219 17.1999 156.571 17.4559 157.707 17.9679C158.859 18.4799 159.747 19.2159 160.371 20.1759C160.995 21.1199 161.307 22.2399 161.307 23.5359C161.307 24.8319 160.995 25.9519 160.371 26.8959C159.747 27.8239 158.859 28.5359 157.707 29.0319C156.571 29.5279 155.219 29.7759 153.651 29.7759H148.707L151.227 27.4479V33.9999H145.563ZM155.619 33.9999L151.491 27.8799H157.491L161.667 33.9999H155.619ZM151.227 28.0719L148.707 25.5039H153.291C154.075 25.5039 154.651 25.3279 155.019 24.9759C155.403 24.6239 155.595 24.1439 155.595 23.5359C155.595 22.9279 155.403 22.4479 155.019 22.0959C154.651 21.7439 154.075 21.5679 153.291 21.5679H148.707L151.227 18.9999V28.0719ZM172.254 34.3839C170.894 34.3839 169.63 34.1679 168.462 33.7359C167.31 33.3039 166.31 32.6959 165.462 31.9119C164.614 31.1119 163.95 30.1759 163.47 29.1039C163.006 28.0319 162.774 26.8639 162.774 25.5999C162.774 24.3199 163.006 23.1519 163.47 22.0959C163.95 21.0239 164.614 20.0959 165.462 19.3119C166.31 18.5119 167.31 17.8959 168.462 17.4639C169.63 17.0319 170.894 16.8159 172.254 16.8159C173.63 16.8159 174.894 17.0319 176.046 17.4639C177.198 17.8959 178.198 18.5119 179.046 19.3119C179.894 20.0959 180.55 21.0239 181.014 22.0959C181.494 23.1519 181.734 24.3199 181.734 25.5999C181.734 26.8639 181.494 28.0319 181.014 29.1039C180.55 30.1759 179.894 31.1119 179.046 31.9119C178.198 32.6959 177.198 33.3039 176.046 33.7359C174.894 34.1679 173.63 34.3839 172.254 34.3839ZM172.254 29.7999C172.782 29.7999 173.27 29.7039 173.718 29.5119C174.182 29.3199 174.582 29.0479 174.918 28.6959C175.27 28.3279 175.542 27.8879 175.734 27.3759C175.926 26.8479 176.022 26.2559 176.022 25.5999C176.022 24.9439 175.926 24.3599 175.734 23.8479C175.542 23.3199 175.27 22.8799 174.918 22.5279C174.582 22.1599 174.182 21.8799 173.718 21.6879C173.27 21.4959 172.782 21.3999 172.254 21.3999C171.726 21.3999 171.23 21.4959 170.766 21.6879C170.318 21.8799 169.918 22.1599 169.566 22.5279C169.23 22.8799 168.966 23.3199 168.774 23.8479C168.582 24.3599 168.486 24.9439 168.486 25.5999C168.486 26.2559 168.582 26.8479 168.774 27.3759C168.966 27.8879 169.23 28.3279 169.566 28.6959C169.918 29.0479 170.318 29.3199 170.766 29.5119C171.23 29.7039 171.726 29.7999 172.254 29.7999ZM187.452 33.9999L182.076 17.1999H187.908L192.252 31.3839H189.324L193.932 17.1999H199.14L203.436 31.3839H200.628L205.164 17.1999H210.54L205.164 33.9999H199.092L195.588 22.3839H197.22L193.524 33.9999H187.452ZM216.982 23.4399H224.47V27.5199H216.982V23.4399ZM217.366 29.7279H225.766V33.9999H211.798V17.1999H225.454V21.4719H217.366V29.7279ZM227.946 33.9999V17.1999H236.034C237.602 17.1999 238.954 17.4559 240.09 17.9679C241.242 18.4799 242.13 19.2159 242.754 20.1759C243.378 21.1199 243.69 22.2399 243.69 23.5359C243.69 24.8319 243.378 25.9519 242.754 26.8959C242.13 27.8239 241.242 28.5359 240.09 29.0319C238.954 29.5279 237.602 29.7759 236.034 29.7759H231.09L233.61 27.4479V33.9999H227.946ZM238.002 33.9999L233.874 27.8799H239.874L244.05 33.9999H238.002ZM233.61 28.0719L231.09 25.5039H235.674C236.458 25.5039 237.034 25.3279 237.402 24.9759C237.786 24.6239 237.978 24.1439 237.978 23.5359C237.978 22.9279 237.786 22.4479 237.402 22.0959C237.034 21.7439 236.458 21.5679 235.674 21.5679H231.09L233.61 18.9999V28.0719Z" fill="#20232B"/>
<path d="M0 1.625C0 0.727537 0.727537 0 1.625 0H35.75C44.7246 0 52 7.27537 52 16.25V50.375C52 51.2725 51.2725 52 50.375 52H16.25C7.27537 52 0 44.7246 0 35.75V1.625Z" fill="#20232B"/>
<path fill-rule="evenodd" clip-rule="evenodd" d="M15.4375 8.125L30.8011 27.3948V16.3651H36.5625V43.875L21.1989 24.6052V35.6349H15.4375V8.125Z" fill="white"/>
</svg>
