<svg width="1174" height="7" viewBox="0 0 1174 7" fill="none" xmlns="http://www.w3.org/2000/svg">
<mask id="mask0_104_2288" style="mask-type:alpha" maskUnits="userSpaceOnUse" x="0" y="0" width="1174" height="7">
<path d="M0 0H1174V7H0V0Z" fill="#D9D9D9"/>
</mask>
<g mask="url(#mask0_104_2288)">
<rect x="80.1777" y="-108.014" width="4.4275" height="1350.66" transform="rotate(45 80.1777 -108.014)" fill="#14151B"/>
<rect x="68.876" y="-108.75" width="4.4275" height="1350.66" transform="rotate(45 68.876 -108.75)" fill="#14151B"/>
<rect x="57.5742" y="-109.486" width="4.4275" height="1350.66" transform="rotate(45 57.5742 -109.486)" fill="#14151B"/>
<rect x="46.2725" y="-110.222" width="4.4275" height="1350.66" transform="rotate(45 46.2725 -110.222)" fill="#14151B"/>
<rect x="34.9707" y="-110.958" width="4.4275" height="1350.66" transform="rotate(45 34.9707 -110.958)" fill="#14151B"/>
<rect x="23.6689" y="-111.693" width="4.4275" height="1350.66" transform="rotate(45 23.6689 -111.693)" fill="#14151B"/>
<rect x="12.3672" y="-112.429" width="4.4275" height="1350.66" transform="rotate(45 12.3672 -112.429)" fill="#14151B"/>
<rect x="1.06543" y="-113.165" width="4.4275" height="1350.66" transform="rotate(45 1.06543 -113.165)" fill="#14151B"/>
<rect x="91.6846" y="-108.014" width="4.4275" height="1350.66" transform="rotate(45 91.6846 -108.014)" fill="#14151B"/>
<rect x="103.19" y="-108.014" width="4.4275" height="1350.66" transform="rotate(45 103.19 -108.014)" fill="#14151B"/>
<rect x="114.697" y="-108.014" width="4.4275" height="1350.66" transform="rotate(45 114.697 -108.014)" fill="#14151B"/>
<rect x="126.203" y="-108.014" width="4.4275" height="1350.66" transform="rotate(45 126.203 -108.014)" fill="#14151B"/>
<rect x="137.71" y="-108.014" width="4.4275" height="1350.66" transform="rotate(45 137.71 -108.014)" fill="#14151B"/>
<rect x="149.217" y="-108.014" width="4.4275" height="1350.66" transform="rotate(45 149.217 -108.014)" fill="#14151B"/>
<rect x="160.723" y="-108.014" width="4.4275" height="1350.66" transform="rotate(45 160.723 -108.014)" fill="#14151B"/>
<rect x="172.229" y="-108.014" width="4.4275" height="1350.66" transform="rotate(45 172.229 -108.014)" fill="#14151B"/>
<rect x="183.735" y="-108.014" width="4.4275" height="1350.66" transform="rotate(45 183.735 -108.014)" fill="#14151B"/>
<rect x="195.242" y="-108.014" width="4.4275" height="1350.66" transform="rotate(45 195.242 -108.014)" fill="#14151B"/>
<rect x="206.748" y="-108.014" width="4.4275" height="1350.66" transform="rotate(45 206.748 -108.014)" fill="#14151B"/>
<rect x="218.255" y="-108.014" width="4.4275" height="1350.66" transform="rotate(45 218.255 -108.014)" fill="#14151B"/>
<rect x="229.761" y="-108.014" width="4.4275" height="1350.66" transform="rotate(45 229.761 -108.014)" fill="#14151B"/>
<rect x="241.268" y="-108.014" width="4.4275" height="1350.66" transform="rotate(45 241.268 -108.014)" fill="#14151B"/>
<rect x="252.773" y="-108.014" width="4.4275" height="1350.66" transform="rotate(45 252.773 -108.014)" fill="#14151B"/>
<rect x="264.28" y="-108.014" width="4.4275" height="1350.66" transform="rotate(45 264.28 -108.014)" fill="#14151B"/>
<rect x="275.787" y="-108.014" width="4.4275" height="1350.66" transform="rotate(45 275.787 -108.014)" fill="#14151B"/>
<rect x="287.293" y="-108.014" width="4.4275" height="1350.66" transform="rotate(45 287.293 -108.014)" fill="#14151B"/>
<rect x="298.8" y="-108.014" width="4.4275" height="1350.66" transform="rotate(45 298.8 -108.014)" fill="#14151B"/>
<rect x="310.306" y="-108.014" width="4.4275" height="1350.66" transform="rotate(45 310.306 -108.014)" fill="#14151B"/>
<rect x="321.812" y="-108.014" width="4.4275" height="1350.66" transform="rotate(45 321.812 -108.014)" fill="#14151B"/>
<rect x="333.318" y="-108.014" width="4.4275" height="1350.66" transform="rotate(45 333.318 -108.014)" fill="#14151B"/>
<rect x="344.825" y="-108.014" width="4.4275" height="1350.66" transform="rotate(45 344.825 -108.014)" fill="#14151B"/>
<rect x="356.331" y="-108.014" width="4.4275" height="1350.66" transform="rotate(45 356.331 -108.014)" fill="#14151B"/>
<rect x="367.838" y="-108.014" width="4.4275" height="1350.66" transform="rotate(45 367.838 -108.014)" fill="#14151B"/>
<rect x="379.344" y="-108.014" width="4.4275" height="1350.66" transform="rotate(45 379.344 -108.014)" fill="#14151B"/>
<rect x="390.851" y="-108.014" width="4.4275" height="1350.66" transform="rotate(45 390.851 -108.014)" fill="#14151B"/>
<rect x="402.357" y="-108.014" width="4.4275" height="1350.66" transform="rotate(45 402.357 -108.014)" fill="#14151B"/>
<rect x="413.863" y="-108.014" width="4.4275" height="1350.66" transform="rotate(45 413.863 -108.014)" fill="#14151B"/>
<rect x="425.37" y="-108.014" width="4.4275" height="1350.66" transform="rotate(45 425.37 -108.014)" fill="#14151B"/>
<rect x="436.876" y="-108.014" width="4.4275" height="1350.66" transform="rotate(45 436.876 -108.014)" fill="#14151B"/>
<rect x="448.383" y="-108.014" width="4.4275" height="1350.66" transform="rotate(45 448.383 -108.014)" fill="#14151B"/>
<rect x="459.889" y="-108.014" width="4.4275" height="1350.66" transform="rotate(45 459.889 -108.014)" fill="#14151B"/>
<rect x="471.396" y="-108.014" width="4.4275" height="1350.66" transform="rotate(45 471.396 -108.014)" fill="#14151B"/>
<rect x="482.901" y="-108.014" width="4.4275" height="1350.66" transform="rotate(45 482.901 -108.014)" fill="#14151B"/>
<rect x="494.408" y="-108.014" width="4.4275" height="1350.66" transform="rotate(45 494.408 -108.014)" fill="#14151B"/>
<rect x="505.914" y="-108.014" width="4.4275" height="1350.66" transform="rotate(45 505.914 -108.014)" fill="#14151B"/>
<rect x="517.421" y="-108.014" width="4.4275" height="1350.66" transform="rotate(45 517.421 -108.014)" fill="#14151B"/>
<rect x="528.928" y="-108.014" width="4.4275" height="1350.66" transform="rotate(45 528.928 -108.014)" fill="#14151B"/>
<rect x="540.434" y="-108.014" width="4.4275" height="1350.66" transform="rotate(45 540.434 -108.014)" fill="#14151B"/>
<rect x="551.94" y="-108.014" width="4.4275" height="1350.66" transform="rotate(45 551.94 -108.014)" fill="#14151B"/>
<rect x="563.446" y="-108.014" width="4.4275" height="1350.66" transform="rotate(45 563.446 -108.014)" fill="#14151B"/>
<rect x="574.953" y="-108.014" width="4.4275" height="1350.66" transform="rotate(45 574.953 -108.014)" fill="#14151B"/>
<rect x="586.459" y="-108.014" width="4.4275" height="1350.66" transform="rotate(45 586.459 -108.014)" fill="#14151B"/>
<rect x="597.966" y="-108.014" width="4.4275" height="1350.66" transform="rotate(45 597.966 -108.014)" fill="#14151B"/>
<rect x="609.472" y="-108.014" width="4.4275" height="1350.66" transform="rotate(45 609.472 -108.014)" fill="#14151B"/>
<rect x="620.979" y="-108.014" width="4.4275" height="1350.66" transform="rotate(45 620.979 -108.014)" fill="#14151B"/>
<rect x="632.484" y="-108.014" width="4.4275" height="1350.66" transform="rotate(45 632.484 -108.014)" fill="#14151B"/>
<rect x="643.991" y="-108.014" width="4.4275" height="1350.66" transform="rotate(45 643.991 -108.014)" fill="#14151B"/>
<rect x="655.498" y="-108.014" width="4.4275" height="1350.66" transform="rotate(45 655.498 -108.014)" fill="#14151B"/>
<rect x="667.004" y="-108.014" width="4.4275" height="1350.66" transform="rotate(45 667.004 -108.014)" fill="#14151B"/>
<rect x="678.511" y="-108.014" width="4.4275" height="1350.66" transform="rotate(45 678.511 -108.014)" fill="#14151B"/>
<rect x="690.017" y="-108.014" width="4.4275" height="1350.66" transform="rotate(45 690.017 -108.014)" fill="#14151B"/>
<rect x="701.523" y="-108.014" width="4.4275" height="1350.66" transform="rotate(45 701.523 -108.014)" fill="#14151B"/>
<rect x="713.029" y="-108.014" width="4.4275" height="1350.66" transform="rotate(45 713.029 -108.014)" fill="#14151B"/>
<rect x="724.536" y="-108.014" width="4.4275" height="1350.66" transform="rotate(45 724.536 -108.014)" fill="#14151B"/>
<rect x="736.043" y="-108.014" width="4.4275" height="1350.66" transform="rotate(45 736.043 -108.014)" fill="#14151B"/>
<rect x="747.549" y="-108.014" width="4.4275" height="1350.66" transform="rotate(45 747.549 -108.014)" fill="#14151B"/>
<rect x="759.055" y="-108.014" width="4.4275" height="1350.66" transform="rotate(45 759.055 -108.014)" fill="#14151B"/>
<rect x="770.562" y="-108.014" width="4.4275" height="1350.66" transform="rotate(45 770.562 -108.014)" fill="#14151B"/>
<rect x="782.068" y="-108.014" width="4.4275" height="1350.66" transform="rotate(45 782.068 -108.014)" fill="#14151B"/>
<rect x="793.574" y="-108.014" width="4.4275" height="1350.66" transform="rotate(45 793.574 -108.014)" fill="#14151B"/>
<rect x="805.081" y="-108.014" width="4.4275" height="1350.66" transform="rotate(45 805.081 -108.014)" fill="#14151B"/>
<rect x="816.587" y="-108.014" width="4.4275" height="1350.66" transform="rotate(45 816.587 -108.014)" fill="#14151B"/>
<rect x="828.094" y="-108.014" width="4.4275" height="1350.66" transform="rotate(45 828.094 -108.014)" fill="#14151B"/>
<rect x="839.6" y="-108.014" width="4.4275" height="1350.66" transform="rotate(45 839.6 -108.014)" fill="#14151B"/>
<rect x="851.106" y="-108.014" width="4.4275" height="1350.66" transform="rotate(45 851.106 -108.014)" fill="#14151B"/>
<rect x="862.613" y="-108.014" width="4.4275" height="1350.66" transform="rotate(45 862.613 -108.014)" fill="#14151B"/>
<rect x="874.119" y="-108.014" width="4.4275" height="1350.66" transform="rotate(45 874.119 -108.014)" fill="#14151B"/>
<rect x="885.625" y="-108.014" width="4.4275" height="1350.66" transform="rotate(45 885.625 -108.014)" fill="#14151B"/>
<rect x="897.132" y="-108.014" width="4.4275" height="1350.66" transform="rotate(45 897.132 -108.014)" fill="#14151B"/>
<rect x="908.639" y="-108.014" width="4.4275" height="1350.66" transform="rotate(45 908.639 -108.014)" fill="#14151B"/>
<rect x="920.145" y="-108.014" width="4.4275" height="1350.66" transform="rotate(45 920.145 -108.014)" fill="#14151B"/>
<rect x="931.651" y="-108.014" width="4.4275" height="1350.66" transform="rotate(45 931.651 -108.014)" fill="#14151B"/>
<rect x="943.157" y="-108.014" width="4.4275" height="1350.66" transform="rotate(45 943.157 -108.014)" fill="#14151B"/>
<rect x="954.664" y="-108.014" width="4.4275" height="1350.66" transform="rotate(45 954.664 -108.014)" fill="#14151B"/>
<rect x="966.17" y="-108.014" width="4.4275" height="1350.66" transform="rotate(45 966.17 -108.014)" fill="#14151B"/>
<rect x="977.677" y="-108.014" width="4.4275" height="1350.66" transform="rotate(45 977.677 -108.014)" fill="#14151B"/>
<rect x="989.184" y="-108.014" width="4.4275" height="1350.66" transform="rotate(45 989.184 -108.014)" fill="#14151B"/>
<rect x="1000.69" y="-108.014" width="4.4275" height="1350.66" transform="rotate(45 1000.69 -108.014)" fill="#14151B"/>
<rect x="1012.2" y="-108.014" width="4.4275" height="1350.66" transform="rotate(45 1012.2 -108.014)" fill="#14151B"/>
<rect x="1023.7" y="-108.014" width="4.4275" height="1350.66" transform="rotate(45 1023.7 -108.014)" fill="#14151B"/>
<rect x="1035.21" y="-108.014" width="4.4275" height="1350.66" transform="rotate(45 1035.21 -108.014)" fill="#14151B"/>
<rect x="1046.71" y="-108.014" width="4.4275" height="1350.66" transform="rotate(45 1046.71 -108.014)" fill="#14151B"/>
<rect x="1058.22" y="-108.014" width="4.4275" height="1350.66" transform="rotate(45 1058.22 -108.014)" fill="#14151B"/>
<rect x="1069.22" y="-108.014" width="4.4275" height="1350.66" transform="rotate(45 1069.22 -108.014)" fill="#14151B"/>
<rect x="1080.22" y="-108.014" width="4.4275" height="1350.66" transform="rotate(45 1080.22 -108.014)" fill="#14151B"/>
<rect x="1091.22" y="-108.014" width="4.4275" height="1350.66" transform="rotate(45 1091.22 -108.014)" fill="#14151B"/>
<rect x="1102.22" y="-108.014" width="4.4275" height="1350.66" transform="rotate(45 1102.22 -108.014)" fill="#14151B"/>
<rect x="1113.22" y="-108.014" width="4.4275" height="1350.66" transform="rotate(45 1113.22 -108.014)" fill="#14151B"/>
<rect x="1124.22" y="-108.014" width="4.4275" height="1350.66" transform="rotate(45 1124.22 -108.014)" fill="#14151B"/>
<rect x="1135.22" y="-108.014" width="4.4275" height="1350.66" transform="rotate(45 1135.22 -108.014)" fill="#14151B"/>
<rect x="1146.22" y="-108.014" width="4.4275" height="1350.66" transform="rotate(45 1146.22 -108.014)" fill="#14151B"/>
<rect x="1157.22" y="-108.014" width="4.4275" height="1350.66" transform="rotate(45 1157.22 -108.014)" fill="#14151B"/>
<rect x="1168.22" y="-108.014" width="4.4275" height="1350.66" transform="rotate(45 1168.22 -108.014)" fill="#14151B"/>
<rect x="1179.22" y="-108.014" width="4.4275" height="1350.66" transform="rotate(45 1179.22 -108.014)" fill="#14151B"/>
<rect x="1190.22" y="-108.014" width="4.4275" height="1350.66" transform="rotate(45 1190.22 -108.014)" fill="#14151B"/>
<rect x="1201.22" y="-108.014" width="4.4275" height="1350.66" transform="rotate(45 1201.22 -108.014)" fill="#14151B"/>
<rect x="1212.22" y="-108.014" width="4.4275" height="1350.66" transform="rotate(45 1212.22 -108.014)" fill="#14151B"/>
<rect x="1223.22" y="-108.014" width="4.4275" height="1350.66" transform="rotate(45 1223.22 -108.014)" fill="#14151B"/>
<rect x="1234.22" y="-108.014" width="4.4275" height="1350.66" transform="rotate(45 1234.22 -108.014)" fill="#14151B"/>
<rect x="1245.22" y="-108.014" width="4.4275" height="1350.66" transform="rotate(45 1245.22 -108.014)" fill="#14151B"/>
<rect x="1256.22" y="-108.014" width="4.4275" height="1350.66" transform="rotate(45 1256.22 -108.014)" fill="#14151B"/>
<rect x="1267.22" y="-108.014" width="4.4275" height="1350.66" transform="rotate(45 1267.22 -108.014)" fill="#14151B"/>
<rect x="1278.22" y="-108.014" width="4.4275" height="1350.66" transform="rotate(45 1278.22 -108.014)" fill="#14151B"/>
<rect x="1289.22" y="-108.014" width="4.4275" height="1350.66" transform="rotate(45 1289.22 -108.014)" fill="#14151B"/>
<rect x="1300.22" y="-108.014" width="4.4275" height="1350.66" transform="rotate(45 1300.22 -108.014)" fill="#14151B"/>
<rect x="1311.22" y="-108.014" width="4.4275" height="1350.66" transform="rotate(45 1311.22 -108.014)" fill="#14151B"/>
<rect x="1322.22" y="-108.014" width="4.4275" height="1350.66" transform="rotate(45 1322.22 -108.014)" fill="#14151B"/>
<rect x="1333.22" y="-108.014" width="4.4275" height="1350.66" transform="rotate(45 1333.22 -108.014)" fill="#14151B"/>
<rect x="1344.22" y="-108.014" width="4.4275" height="1350.66" transform="rotate(45 1344.22 -108.014)" fill="#14151B"/>
<rect x="1355.22" y="-108.014" width="4.4275" height="1350.66" transform="rotate(45 1355.22 -108.014)" fill="#14151B"/>
<rect x="1366.22" y="-108.014" width="4.4275" height="1350.66" transform="rotate(45 1366.22 -108.014)" fill="#14151B"/>
<rect x="1377.22" y="-108.014" width="4.4275" height="1350.66" transform="rotate(45 1377.22 -108.014)" fill="#14151B"/>
<rect x="1388.22" y="-108.014" width="4.4275" height="1350.66" transform="rotate(45 1388.22 -108.014)" fill="#14151B"/>
<rect x="1399.22" y="-108.014" width="4.4275" height="1350.66" transform="rotate(45 1399.22 -108.014)" fill="#14151B"/>
<rect x="1410.22" y="-108.014" width="4.4275" height="1350.66" transform="rotate(45 1410.22 -108.014)" fill="#14151B"/>
<rect x="1421.22" y="-108.014" width="4.4275" height="1350.66" transform="rotate(45 1421.22 -108.014)" fill="#14151B"/>
<rect x="1430.81" y="-106.688" width="4.4275" height="1350.66" transform="rotate(45 1430.81 -106.688)" fill="#14151B"/>
<rect x="1440.41" y="-105.361" width="4.4275" height="1350.66" transform="rotate(45 1440.41 -105.361)" fill="#14151B"/>
<rect x="1450" y="-104.034" width="4.4275" height="1350.66" transform="rotate(45 1450 -104.034)" fill="#14151B"/>
<rect x="1459.59" y="-102.708" width="4.4275" height="1350.66" transform="rotate(45 1459.59 -102.708)" fill="#14151B"/>
<rect x="1469.18" y="-101.381" width="4.4275" height="1350.66" transform="rotate(45 1469.18 -101.381)" fill="#14151B"/>
<rect x="1478.78" y="-100.054" width="4.4275" height="1350.66" transform="rotate(45 1478.78 -100.054)" fill="#14151B"/>
<rect x="1488.37" y="-98.7275" width="4.4275" height="1350.66" transform="rotate(45 1488.37 -98.7275)" fill="#14151B"/>
</g>
</svg>
