<svg width="120" height="25" viewBox="0 0 120 25" fill="none" xmlns="http://www.w3.org/2000/svg">
    <g clip-path="url(#clip0_104_47309)">
        <path d="M7.959 10.8978L12.592 6.21579L17.2275 10.9002L19.9233 8.17583L12.592 0.766602L5.26318 8.17336L7.959 10.8978Z" fill="#FCD535"/>
        <path d="M6.05514 12.821L3.35938 10.0967L0.663473 12.8212L3.35924 15.5455L6.05514 12.821Z" fill="#FCD535"/>
        <path d="M7.95905 14.7452L12.5921 19.4272L17.2274 14.7429L19.9247 17.4658L19.9234 17.4673L12.5921 24.8764L5.26305 17.4698L5.25928 17.466L7.95905 14.7452Z" fill="#FCD535"/>
        <path d="M21.8246 15.5468L24.5205 12.8223L21.8247 10.0979L19.1288 12.8224L21.8246 15.5468Z" fill="#FCD535"/>
        <path d="M15.3263 12.82H15.3274L12.5919 10.0554L10.5702 12.0985H10.5701L10.3379 12.3333L9.85875 12.8175L9.85498 12.8213L9.85875 12.8253L12.5919 15.5874L15.3274 12.8229L15.3288 12.8213L15.3263 12.82Z" fill="#FCD535"/>
        <path d="M28.7236 6.60864H34.5869C36.0421 6.60864 37.1425 6.98606 37.8883 7.74091C38.4655 8.32551 38.7539 9.05008 38.7539 9.91441V9.95098C38.7539 10.3162 38.7093 10.639 38.6194 10.9189C38.5297 11.1992 38.4099 11.4515 38.2601 11.6768C38.1107 11.9023 37.9369 12.1001 37.7395 12.2703C37.5418 12.441 37.3294 12.5872 37.102 12.7087C37.8335 12.989 38.4093 13.3693 38.8291 13.8503C39.2488 14.3315 39.4588 14.9982 39.4588 15.8503V15.8867C39.4588 16.4713 39.3477 16.9826 39.1251 17.4211C38.9026 17.8593 38.5838 18.2247 38.1687 18.517C37.7536 18.8093 37.2544 19.0283 36.6711 19.1746C36.0877 19.3206 35.4412 19.3936 34.7318 19.3936H28.7236V6.60864ZM34.0007 11.7773C34.6154 11.7773 35.1034 11.6711 35.4646 11.4578C35.826 11.2447 36.0067 10.9006 36.0067 10.4259V10.3893C36.0067 9.96335 35.8499 9.63773 35.5368 9.41226C35.2234 9.18699 34.7716 9.07426 34.1814 9.07426H31.4343V11.7773H34.0007V11.7773ZM34.7418 16.9281C35.3562 16.9281 35.8379 16.8158 36.1876 16.5903C36.5369 16.3651 36.7118 16.0149 36.7118 15.5399V15.5036C36.7118 15.0774 36.549 14.7396 36.2238 14.4897C35.8983 14.2405 35.3743 14.1156 34.6513 14.1156H31.4343V16.9283H34.7418V16.9281Z" fill="#FCD535"/>
        <path d="M42.9507 6.60864H45.7341V19.3939H42.9507V6.60864Z" fill="#FCD535"/>
        <path d="M49.9497 6.60864H52.5157L58.4438 14.4808V6.60864H61.1908V19.3939H58.8235L52.6966 11.2662V19.3939H49.9497V6.60864Z" fill="#FCD535"/>
        <path d="M69.6172 6.51733H72.1833L77.6055 19.3938H74.6956L73.5389 16.5264H68.1893L67.0327 19.3938H64.1948L69.6172 6.51733ZM72.5449 14.0422L70.864 9.89623L69.1836 14.0422H72.5449Z" fill="#FCD535"/>
        <path d="M80.6099 6.60864H83.1764L89.1041 14.4808V6.60864H91.8512V19.3939H89.4838L83.3569 11.2662V19.3939H80.6099V6.60864V6.60864Z" fill="#FCD535"/>
        <path d="M101.868 19.6129C100.94 19.6129 100.079 19.4423 99.2835 19.1016C98.4882 18.7609 97.8015 18.2949 97.2233 17.7042C96.6448 17.1137 96.1928 16.4166 95.8679 15.613C95.5425 14.8092 95.3799 13.9508 95.3799 13.0375V13.0011C95.3799 12.0879 95.5425 11.2327 95.8679 10.435C96.1929 9.63748 96.6448 8.93729 97.2233 8.33459C97.8014 7.7319 98.4944 7.25679 99.3014 6.90984C100.108 6.56288 101.001 6.3894 101.977 6.3894C102.566 6.3894 103.106 6.43834 103.594 6.53546C104.082 6.63315 104.524 6.76683 104.922 6.93726C105.32 7.10788 105.687 7.31487 106.025 7.55823C106.362 7.80197 106.675 8.06971 106.964 8.36201L105.194 10.4258C104.699 9.97548 104.196 9.62205 103.684 9.3665C103.172 9.11095 102.597 8.98299 101.958 8.98299C101.428 8.98299 100.937 9.08658 100.485 9.29357C100.034 9.50056 99.6449 9.78658 99.3195 10.1518C98.9945 10.517 98.7414 10.9404 98.5603 11.4212C98.38 11.9024 98.2897 12.4167 98.2897 12.9646V13.0009C98.2897 13.5488 98.38 14.0666 98.5603 14.5533C98.7414 15.0406 98.9909 15.4666 99.3106 15.8318C99.6297 16.197 100.015 16.4865 100.467 16.6996C100.919 16.9128 101.416 17.0191 101.958 17.0191C102.681 17.0191 103.292 16.8852 103.792 16.6173C104.292 16.3498 104.79 15.9843 105.284 15.5214L107.055 17.3297C106.729 17.6829 106.392 17.9996 106.043 18.2793C105.693 18.5596 105.311 18.8 104.895 19.001C104.479 19.2017 104.024 19.3543 103.531 19.4575C103.036 19.5609 102.482 19.6129 101.868 19.6129Z" fill="#FCD535"/>
        <path d="M110.33 6.60864H119.854V9.11101H113.077V11.7046H119.041V14.2068H113.077V16.8918H119.945V19.3939H110.33V6.60864Z" fill="#FCD535"/>
    </g>
    <defs>
        <clipPath id="clip0_104_47309">
            <rect width="119.088" height="24.1099" fill="white" transform="translate(0.766602 0.766602)"/>
        </clipPath>
    </defs>
</svg>
