<svg width="1920" height="16" viewBox="0 0 1920 16" fill="none" xmlns="http://www.w3.org/2000/svg">
<mask id="mask0_104_47370" style="mask-type:alpha" maskUnits="userSpaceOnUse" x="0" y="0" width="1920" height="16">
<rect width="1920" height="16" fill="#D9D9D9"/>
</mask>
<g mask="url(#mask0_104_47370)">
<rect x="180.622" y="-34.9294" width="6.44" height="1964.6" transform="rotate(45 180.622 -34.9294)" fill="#FFDC40"/>
<rect x="164.183" y="-35.9998" width="6.44" height="1964.6" transform="rotate(45 164.183 -35.9998)" fill="#FFDC40"/>
<rect x="147.744" y="-37.0701" width="6.44" height="1964.6" transform="rotate(45 147.744 -37.0701)" fill="#FFDC40"/>
<rect x="131.305" y="-38.1404" width="6.44" height="1964.6" transform="rotate(45 131.305 -38.1404)" fill="#FFDC40"/>
<rect x="114.866" y="-39.2107" width="6.44" height="1964.6" transform="rotate(45 114.866 -39.2107)" fill="#FFDC40"/>
<rect x="98.4268" y="-40.281" width="6.44" height="1964.6" transform="rotate(45 98.4268 -40.281)" fill="#FFDC40"/>
<rect x="81.9883" y="-41.3513" width="6.44" height="1964.6" transform="rotate(45 81.9883 -41.3513)" fill="#FFDC40"/>
<rect x="65.5488" y="-42.4216" width="6.44" height="1964.6" transform="rotate(45 65.5488 -42.4216)" fill="#FFDC40"/>
<rect x="49.1104" y="-43.4919" width="6.44" height="1964.6" transform="rotate(45 49.1104 -43.4919)" fill="#FFDC40"/>
<rect x="32.6709" y="-44.5623" width="6.44" height="1964.6" transform="rotate(45 32.6709 -44.5623)" fill="#FFDC40"/>
<rect x="16.2324" y="-45.6326" width="6.44" height="1964.6" transform="rotate(45 16.2324 -45.6326)" fill="#FFDC40"/>
<rect x="-0.207031" y="-46.7029" width="6.44" height="1964.6" transform="rotate(45 -0.207031 -46.7029)" fill="#FFDC40"/>
<rect x="197.358" y="-34.9294" width="6.44" height="1964.6" transform="rotate(45 197.358 -34.9294)" fill="#FFDC40"/>
<rect x="214.095" y="-34.9294" width="6.44" height="1964.6" transform="rotate(45 214.095 -34.9294)" fill="#FFDC40"/>
<rect x="230.832" y="-34.9294" width="6.44" height="1964.6" transform="rotate(45 230.832 -34.9294)" fill="#FFDC40"/>
<rect x="247.568" y="-34.9294" width="6.44" height="1964.6" transform="rotate(45 247.568 -34.9294)" fill="#FFDC40"/>
<rect x="264.305" y="-34.9294" width="6.44" height="1964.6" transform="rotate(45 264.305 -34.9294)" fill="#FFDC40"/>
<rect x="281.041" y="-34.9294" width="6.44" height="1964.6" transform="rotate(45 281.041 -34.9294)" fill="#FFDC40"/>
<rect x="297.778" y="-34.9294" width="6.44" height="1964.6" transform="rotate(45 297.778 -34.9294)" fill="#FFDC40"/>
<rect x="314.514" y="-34.9294" width="6.44" height="1964.6" transform="rotate(45 314.514 -34.9294)" fill="#FFDC40"/>
<rect x="331.251" y="-34.9294" width="6.44" height="1964.6" transform="rotate(45 331.251 -34.9294)" fill="#FFDC40"/>
<rect x="347.987" y="-34.9294" width="6.44" height="1964.6" transform="rotate(45 347.987 -34.9294)" fill="#FFDC40"/>
<rect x="364.724" y="-34.9294" width="6.44" height="1964.6" transform="rotate(45 364.724 -34.9294)" fill="#FFDC40"/>
<rect x="381.46" y="-34.9294" width="6.44" height="1964.6" transform="rotate(45 381.46 -34.9294)" fill="#FFDC40"/>
<rect x="398.197" y="-34.9294" width="6.44" height="1964.6" transform="rotate(45 398.197 -34.9294)" fill="#FFDC40"/>
<rect x="414.934" y="-34.9294" width="6.44" height="1964.6" transform="rotate(45 414.934 -34.9294)" fill="#FFDC40"/>
<rect x="431.67" y="-34.9294" width="6.44" height="1964.6" transform="rotate(45 431.67 -34.9294)" fill="#FFDC40"/>
<rect x="448.407" y="-34.9294" width="6.44" height="1964.6" transform="rotate(45 448.407 -34.9294)" fill="#FFDC40"/>
<rect x="465.144" y="-34.9294" width="6.44" height="1964.6" transform="rotate(45 465.144 -34.9294)" fill="#FFDC40"/>
<rect x="481.88" y="-34.9294" width="6.44" height="1964.6" transform="rotate(45 481.88 -34.9294)" fill="#FFDC40"/>
<rect x="498.617" y="-34.9294" width="6.44" height="1964.6" transform="rotate(45 498.617 -34.9294)" fill="#FFDC40"/>
<rect x="515.354" y="-34.9294" width="6.44" height="1964.6" transform="rotate(45 515.354 -34.9294)" fill="#FFDC40"/>
<rect x="532.09" y="-34.9294" width="6.44" height="1964.6" transform="rotate(45 532.09 -34.9294)" fill="#FFDC40"/>
<rect x="548.826" y="-34.9294" width="6.44" height="1964.6" transform="rotate(45 548.826 -34.9294)" fill="#FFDC40"/>
<rect x="565.563" y="-34.9294" width="6.44" height="1964.6" transform="rotate(45 565.563 -34.9294)" fill="#FFDC40"/>
<rect x="582.3" y="-34.9294" width="6.44" height="1964.6" transform="rotate(45 582.3 -34.9294)" fill="#FFDC40"/>
<rect x="599.036" y="-34.9294" width="6.44" height="1964.6" transform="rotate(45 599.036 -34.9294)" fill="#FFDC40"/>
<rect x="615.772" y="-34.9294" width="6.44" height="1964.6" transform="rotate(45 615.772 -34.9294)" fill="#FFDC40"/>
<rect x="632.509" y="-34.9294" width="6.44" height="1964.6" transform="rotate(45 632.509 -34.9294)" fill="#FFDC40"/>
<rect x="649.246" y="-34.9294" width="6.44" height="1964.6" transform="rotate(45 649.246 -34.9294)" fill="#FFDC40"/>
<rect x="665.982" y="-34.9294" width="6.44" height="1964.6" transform="rotate(45 665.982 -34.9294)" fill="#FFDC40"/>
<rect x="682.719" y="-34.9294" width="6.44" height="1964.6" transform="rotate(45 682.719 -34.9294)" fill="#FFDC40"/>
<rect x="699.456" y="-34.9294" width="6.44" height="1964.6" transform="rotate(45 699.456 -34.9294)" fill="#FFDC40"/>
<rect x="716.192" y="-34.9294" width="6.44" height="1964.6" transform="rotate(45 716.192 -34.9294)" fill="#FFDC40"/>
<rect x="732.929" y="-34.9294" width="6.44" height="1964.6" transform="rotate(45 732.929 -34.9294)" fill="#FFDC40"/>
<rect x="749.665" y="-34.9294" width="6.44" height="1964.6" transform="rotate(45 749.665 -34.9294)" fill="#FFDC40"/>
<rect x="766.402" y="-34.9294" width="6.44" height="1964.6" transform="rotate(45 766.402 -34.9294)" fill="#FFDC40"/>
<rect x="783.139" y="-34.9294" width="6.44" height="1964.6" transform="rotate(45 783.139 -34.9294)" fill="#FFDC40"/>
<rect x="799.875" y="-34.9294" width="6.44" height="1964.6" transform="rotate(45 799.875 -34.9294)" fill="#FFDC40"/>
<rect x="816.611" y="-34.9294" width="6.44" height="1964.6" transform="rotate(45 816.611 -34.9294)" fill="#FFDC40"/>
<rect x="833.348" y="-34.9294" width="6.44" height="1964.6" transform="rotate(45 833.348 -34.9294)" fill="#FFDC40"/>
<rect x="850.085" y="-34.9294" width="6.44" height="1964.6" transform="rotate(45 850.085 -34.9294)" fill="#FFDC40"/>
<rect x="866.821" y="-34.9294" width="6.44" height="1964.6" transform="rotate(45 866.821 -34.9294)" fill="#FFDC40"/>
<rect x="883.558" y="-34.9294" width="6.44" height="1964.6" transform="rotate(45 883.558 -34.9294)" fill="#FFDC40"/>
<rect x="900.294" y="-34.9294" width="6.44" height="1964.6" transform="rotate(45 900.294 -34.9294)" fill="#FFDC40"/>
<rect x="917.031" y="-34.9294" width="6.44" height="1964.6" transform="rotate(45 917.031 -34.9294)" fill="#FFDC40"/>
<rect x="933.768" y="-34.9294" width="6.44" height="1964.6" transform="rotate(45 933.768 -34.9294)" fill="#FFDC40"/>
<rect x="950.504" y="-34.9294" width="6.44" height="1964.6" transform="rotate(45 950.504 -34.9294)" fill="#FFDC40"/>
<rect x="967.241" y="-34.9294" width="6.44" height="1964.6" transform="rotate(45 967.241 -34.9294)" fill="#FFDC40"/>
<rect x="983.978" y="-34.9294" width="6.44" height="1964.6" transform="rotate(45 983.978 -34.9294)" fill="#FFDC40"/>
<rect x="1000.71" y="-34.9294" width="6.44" height="1964.6" transform="rotate(45 1000.71 -34.9294)" fill="#FFDC40"/>
<rect x="1017.45" y="-34.9294" width="6.44" height="1964.6" transform="rotate(45 1017.45 -34.9294)" fill="#FFDC40"/>
<rect x="1034.19" y="-34.9294" width="6.44" height="1964.6" transform="rotate(45 1034.19 -34.9294)" fill="#FFDC40"/>
<rect x="1050.92" y="-34.9294" width="6.44" height="1964.6" transform="rotate(45 1050.92 -34.9294)" fill="#FFDC40"/>
<rect x="1067.66" y="-34.9294" width="6.44" height="1964.6" transform="rotate(45 1067.66 -34.9294)" fill="#FFDC40"/>
<rect x="1084.4" y="-34.9294" width="6.44" height="1964.6" transform="rotate(45 1084.4 -34.9294)" fill="#FFDC40"/>
<rect x="1101.13" y="-34.9294" width="6.44" height="1964.6" transform="rotate(45 1101.13 -34.9294)" fill="#FFDC40"/>
<rect x="1117.87" y="-34.9294" width="6.44" height="1964.6" transform="rotate(45 1117.87 -34.9294)" fill="#FFDC40"/>
<rect x="1134.61" y="-34.9294" width="6.44" height="1964.6" transform="rotate(45 1134.61 -34.9294)" fill="#FFDC40"/>
<rect x="1151.34" y="-34.9294" width="6.44" height="1964.6" transform="rotate(45 1151.34 -34.9294)" fill="#FFDC40"/>
<rect x="1168.08" y="-34.9294" width="6.44" height="1964.6" transform="rotate(45 1168.08 -34.9294)" fill="#FFDC40"/>
<rect x="1184.82" y="-34.9294" width="6.44" height="1964.6" transform="rotate(45 1184.82 -34.9294)" fill="#FFDC40"/>
<rect x="1201.55" y="-34.9294" width="6.44" height="1964.6" transform="rotate(45 1201.55 -34.9294)" fill="#FFDC40"/>
<rect x="1218.29" y="-34.9294" width="6.44" height="1964.6" transform="rotate(45 1218.29 -34.9294)" fill="#FFDC40"/>
<rect x="1235.03" y="-34.9294" width="6.44" height="1964.6" transform="rotate(45 1235.03 -34.9294)" fill="#FFDC40"/>
<rect x="1251.76" y="-34.9294" width="6.44" height="1964.6" transform="rotate(45 1251.76 -34.9294)" fill="#FFDC40"/>
<rect x="1268.5" y="-34.9294" width="6.44" height="1964.6" transform="rotate(45 1268.5 -34.9294)" fill="#FFDC40"/>
<rect x="1285.24" y="-34.9294" width="6.44" height="1964.6" transform="rotate(45 1285.24 -34.9294)" fill="#FFDC40"/>
<rect x="1301.97" y="-34.9294" width="6.44" height="1964.6" transform="rotate(45 1301.97 -34.9294)" fill="#FFDC40"/>
<rect x="1318.71" y="-34.9294" width="6.44" height="1964.6" transform="rotate(45 1318.71 -34.9294)" fill="#FFDC40"/>
<rect x="1335.45" y="-34.9294" width="6.44" height="1964.6" transform="rotate(45 1335.45 -34.9294)" fill="#FFDC40"/>
<rect x="1352.18" y="-34.9294" width="6.44" height="1964.6" transform="rotate(45 1352.18 -34.9294)" fill="#FFDC40"/>
<rect x="1368.92" y="-34.9294" width="6.44" height="1964.6" transform="rotate(45 1368.92 -34.9294)" fill="#FFDC40"/>
<rect x="1385.66" y="-34.9294" width="6.44" height="1964.6" transform="rotate(45 1385.66 -34.9294)" fill="#FFDC40"/>
<rect x="1402.39" y="-34.9294" width="6.44" height="1964.6" transform="rotate(45 1402.39 -34.9294)" fill="#FFDC40"/>
<rect x="1419.13" y="-34.9294" width="6.44" height="1964.6" transform="rotate(45 1419.13 -34.9294)" fill="#FFDC40"/>
<rect x="1435.86" y="-34.9294" width="6.44" height="1964.6" transform="rotate(45 1435.86 -34.9294)" fill="#FFDC40"/>
<rect x="1452.6" y="-34.9294" width="6.44" height="1964.6" transform="rotate(45 1452.6 -34.9294)" fill="#FFDC40"/>
<rect x="1469.34" y="-34.9294" width="6.44" height="1964.6" transform="rotate(45 1469.34 -34.9294)" fill="#FFDC40"/>
<rect x="1486.07" y="-34.9294" width="6.44" height="1964.6" transform="rotate(45 1486.07 -34.9294)" fill="#FFDC40"/>
<rect x="1502.81" y="-34.9294" width="6.44" height="1964.6" transform="rotate(45 1502.81 -34.9294)" fill="#FFDC40"/>
<rect x="1519.55" y="-34.9294" width="6.44" height="1964.6" transform="rotate(45 1519.55 -34.9294)" fill="#FFDC40"/>
<rect x="1536.28" y="-34.9294" width="6.44" height="1964.6" transform="rotate(45 1536.28 -34.9294)" fill="#FFDC40"/>
<rect x="1553.02" y="-34.9294" width="6.44" height="1964.6" transform="rotate(45 1553.02 -34.9294)" fill="#FFDC40"/>
<rect x="1569.76" y="-34.9294" width="6.44" height="1964.6" transform="rotate(45 1569.76 -34.9294)" fill="#FFDC40"/>
<rect x="1586.49" y="-34.9294" width="6.44" height="1964.6" transform="rotate(45 1586.49 -34.9294)" fill="#FFDC40"/>
<rect x="1603.23" y="-34.9294" width="6.44" height="1964.6" transform="rotate(45 1603.23 -34.9294)" fill="#FFDC40"/>
<rect x="1619.23" y="-34.9294" width="6.44" height="1964.6" transform="rotate(45 1619.23 -34.9294)" fill="#FFDC40"/>
<rect x="1635.23" y="-34.9294" width="6.44" height="1964.6" transform="rotate(45 1635.23 -34.9294)" fill="#FFDC40"/>
<rect x="1651.23" y="-34.9294" width="6.44" height="1964.6" transform="rotate(45 1651.23 -34.9294)" fill="#FFDC40"/>
<rect x="1667.23" y="-34.9294" width="6.44" height="1964.6" transform="rotate(45 1667.23 -34.9294)" fill="#FFDC40"/>
<rect x="1683.23" y="-34.9294" width="6.44" height="1964.6" transform="rotate(45 1683.23 -34.9294)" fill="#FFDC40"/>
<rect x="1699.23" y="-34.9294" width="6.44" height="1964.6" transform="rotate(45 1699.23 -34.9294)" fill="#FFDC40"/>
<rect x="1715.23" y="-34.9294" width="6.44" height="1964.6" transform="rotate(45 1715.23 -34.9294)" fill="#FFDC40"/>
<rect x="1731.23" y="-34.9294" width="6.44" height="1964.6" transform="rotate(45 1731.23 -34.9294)" fill="#FFDC40"/>
<rect x="1747.23" y="-34.9294" width="6.44" height="1964.6" transform="rotate(45 1747.23 -34.9294)" fill="#FFDC40"/>
<rect x="1763.23" y="-34.9294" width="6.44" height="1964.6" transform="rotate(45 1763.23 -34.9294)" fill="#FFDC40"/>
<rect x="1779.23" y="-34.9294" width="6.44" height="1964.6" transform="rotate(45 1779.23 -34.9294)" fill="#FFDC40"/>
<rect x="1795.23" y="-34.9294" width="6.44" height="1964.6" transform="rotate(45 1795.23 -34.9294)" fill="#FFDC40"/>
<rect x="1811.23" y="-34.9294" width="6.44" height="1964.6" transform="rotate(45 1811.23 -34.9294)" fill="#FFDC40"/>
<rect x="1827.23" y="-34.9294" width="6.44" height="1964.6" transform="rotate(45 1827.23 -34.9294)" fill="#FFDC40"/>
<rect x="1843.23" y="-34.9294" width="6.44" height="1964.6" transform="rotate(45 1843.23 -34.9294)" fill="#FFDC40"/>
<rect x="1859.23" y="-34.9294" width="6.44" height="1964.6" transform="rotate(45 1859.23 -34.9294)" fill="#FFDC40"/>
<rect x="1875.23" y="-34.9294" width="6.44" height="1964.6" transform="rotate(45 1875.23 -34.9294)" fill="#FFDC40"/>
<rect x="1891.23" y="-34.9294" width="6.44" height="1964.6" transform="rotate(45 1891.23 -34.9294)" fill="#FFDC40"/>
<rect x="1907.23" y="-34.9294" width="6.44" height="1964.6" transform="rotate(45 1907.23 -34.9294)" fill="#FFDC40"/>
<rect x="1923.23" y="-34.9294" width="6.44" height="1964.6" transform="rotate(45 1923.23 -34.9294)" fill="#FFDC40"/>
<rect x="1939.23" y="-34.9294" width="6.44" height="1964.6" transform="rotate(45 1939.23 -34.9294)" fill="#FFDC40"/>
<rect x="1955.23" y="-34.9294" width="6.44" height="1964.6" transform="rotate(45 1955.23 -34.9294)" fill="#FFDC40"/>
<rect x="1971.23" y="-34.9294" width="6.44" height="1964.6" transform="rotate(45 1971.23 -34.9294)" fill="#FFDC40"/>
<rect x="1987.23" y="-34.9294" width="6.44" height="1964.6" transform="rotate(45 1987.23 -34.9294)" fill="#FFDC40"/>
<rect x="2003.23" y="-34.9294" width="6.44" height="1964.6" transform="rotate(45 2003.23 -34.9294)" fill="#FFDC40"/>
<rect x="2019.23" y="-34.9294" width="6.44" height="1964.6" transform="rotate(45 2019.23 -34.9294)" fill="#FFDC40"/>
<rect x="2035.23" y="-34.9294" width="6.44" height="1964.6" transform="rotate(45 2035.23 -34.9294)" fill="#FFDC40"/>
<rect x="2051.23" y="-34.9294" width="6.44" height="1964.6" transform="rotate(45 2051.23 -34.9294)" fill="#FFDC40"/>
<rect x="2067.23" y="-34.9294" width="6.44" height="1964.6" transform="rotate(45 2067.23 -34.9294)" fill="#FFDC40"/>
<rect x="2083.23" y="-34.9294" width="6.44" height="1964.6" transform="rotate(45 2083.23 -34.9294)" fill="#FFDC40"/>
<rect x="2099.23" y="-34.9294" width="6.44" height="1964.6" transform="rotate(45 2099.23 -34.9294)" fill="#FFDC40"/>
<rect x="2115.23" y="-34.9294" width="6.44" height="1964.6" transform="rotate(45 2115.23 -34.9294)" fill="#FFDC40"/>
<rect x="2131.23" y="-34.9294" width="6.44" height="1964.6" transform="rotate(45 2131.23 -34.9294)" fill="#FFDC40"/>
<rect x="2145.18" y="-32.9998" width="6.44" height="1964.6" transform="rotate(45 2145.18 -32.9998)" fill="#FFDC40"/>
<rect x="2159.14" y="-31.0701" width="6.44" height="1964.6" transform="rotate(45 2159.14 -31.0701)" fill="#FFDC40"/>
<rect x="2173.09" y="-29.1404" width="6.44" height="1964.6" transform="rotate(45 2173.09 -29.1404)" fill="#FFDC40"/>
<rect x="2187.04" y="-27.2107" width="6.44" height="1964.6" transform="rotate(45 2187.04 -27.2107)" fill="#FFDC40"/>
<rect x="2200.99" y="-25.281" width="6.44" height="1964.6" transform="rotate(45 2200.99 -25.281)" fill="#FFDC40"/>
<rect x="2214.94" y="-23.3513" width="6.44" height="1964.6" transform="rotate(45 2214.94 -23.3513)" fill="#FFDC40"/>
<rect x="2228.9" y="-21.4216" width="6.44" height="1964.6" transform="rotate(45 2228.9 -21.4216)" fill="#FFDC40"/>
</g>
</svg>
