<svg width="56" height="56" viewBox="0 0 56 56" fill="none" xmlns="http://www.w3.org/2000/svg">
    <path opacity="0.2" d="M1 1L55 55M55 1L1 55" stroke="white" stroke-width="2"/>
    <rect x="13" y="13" width="30" height="30" rx="15" fill="#1A1A1D"/>
    <path d="M25.644 24.244V25H27.462V27.592H25.644V34H22.548V27.592H21.288V25H22.548V23.938C22.548 22.75 22.878 21.844 23.538 21.22C24.198 20.596 25.128 20.284 26.328 20.284C26.916 20.284 27.414 20.356 27.822 20.5V23.092C27.726 23.092 27.624 23.092 27.516 23.092C27.408 23.08 27.324 23.074 27.264 23.074C27.204 23.062 27.156 23.056 27.12 23.056C26.592 23.056 26.214 23.152 25.986 23.344C25.758 23.524 25.644 23.824 25.644 24.244ZM33.3619 31.444L34.4959 31.408V34C33.9079 34.144 33.3019 34.216 32.6779 34.216C31.3939 34.216 30.4099 33.91 29.7259 33.298C29.0539 32.674 28.7179 31.762 28.7179 30.562V27.592H27.3499V25H28.7179V22.84H31.8139V25H34.2259V27.592H31.8139V30.256C31.8139 30.688 31.9279 30.994 32.1559 31.174C32.3959 31.354 32.7979 31.444 33.3619 31.444ZM36.1601 33.64C35.7761 33.256 35.5841 32.776 35.5841 32.2C35.5841 31.624 35.7761 31.144 36.1601 30.76C36.5441 30.376 37.0361 30.184 37.6361 30.184C38.2121 30.184 38.6861 30.376 39.0581 30.76C39.4421 31.144 39.6341 31.624 39.6341 32.2C39.6341 32.776 39.4421 33.256 39.0581 33.64C38.6861 34.024 38.2121 34.216 37.6361 34.216C37.0361 34.216 36.5441 34.024 36.1601 33.64Z" fill="white"/>
</svg>
