<svg width="26" height="26" viewBox="0 0 26 26" fill="none" xmlns="http://www.w3.org/2000/svg">
    <path d="M11.1042 3.25C6.77926 3.25 3.25 6.77926 3.25 11.1042C3.25 15.4291 6.77926 18.9583 11.1042 18.9583C12.8771 18.9583 14.5107 18.3587 15.8279 17.3608L20.9007 22.4326C21.0005 22.5366 21.1201 22.6196 21.2524 22.6768C21.3847 22.734 21.5271 22.7642 21.6712 22.7656C21.8154 22.7671 21.9583 22.7398 22.0918 22.6853C22.2252 22.6308 22.3465 22.5503 22.4484 22.4484C22.5503 22.3465 22.6308 22.2252 22.6853 22.0918C22.7398 21.9583 22.7671 21.8154 22.7656 21.6712C22.7642 21.5271 22.734 21.3847 22.6768 21.2524C22.6196 21.1201 22.5366 21.0005 22.4326 20.9007L17.3608 15.8279C18.3587 14.5107 18.9583 12.8771 18.9583 11.1042C18.9583 6.77926 15.4291 3.25 11.1042 3.25ZM11.1042 5.41667C14.2581 5.41667 16.7917 7.95021 16.7917 11.1042C16.7917 12.6185 16.2035 13.9862 15.2471 15.0027C15.154 15.0701 15.0722 15.1519 15.0048 15.245C13.9881 16.2026 12.6196 16.7917 11.1042 16.7917C7.95021 16.7917 5.41667 14.2581 5.41667 11.1042C5.41667 7.95021 7.95021 5.41667 11.1042 5.41667Z" fill="#2C2E3C"/>
</svg>
