<svg width="163" height="33" viewBox="0 0 163 33" fill="none" xmlns="http://www.w3.org/2000/svg">
    <g clip-path="url(#clip0_104_47271)">
        <path d="M9.84415 13.8669L16.1855 7.4585L22.5303 13.8703L26.2201 10.1413L16.1855 0L6.1543 10.1379L9.84415 13.8669Z" fill="#FCD535"/>
        <path d="M7.23862 16.4994L3.54883 12.7705L-0.141146 16.4996L3.54865 20.2285L7.23862 16.4994Z" fill="#FCD535"/>
        <path d="M9.8442 19.133L16.1856 25.5414L22.5301 19.1299L26.222 22.8568L26.2202 22.8589L16.1856 32.9999L6.15408 22.8623L6.14893 22.857L9.8442 19.133Z" fill="#FCD535"/>
        <path d="M28.8232 20.2301L32.5132 16.501L28.8234 12.7721L25.1334 16.5012L28.8232 20.2301Z" fill="#FCD535"/>
        <path d="M19.9287 16.4979H19.9303L16.186 12.7139L13.419 15.5103H13.4187L13.101 15.8317L12.4451 16.4945L12.4399 16.4997L12.4451 16.5051L16.186 20.2857L19.9303 16.5018L19.9321 16.4997L19.9287 16.4979Z" fill="#FCD535"/>
        <path d="M38.2656 7.99609H46.2909C48.2827 7.99609 49.7889 8.51268 50.8096 9.54586C51.5996 10.346 51.9945 11.3378 51.9945 12.5208V12.5709C51.9945 13.0708 51.9333 13.5126 51.8103 13.8957C51.6876 14.2794 51.5235 14.6247 51.3185 14.933C51.114 15.2416 50.8762 15.5125 50.6059 15.7455C50.3354 15.979 50.0447 16.1792 49.7334 16.3455C50.7346 16.7291 51.5228 17.2496 52.0974 17.908C52.6717 18.5666 52.9593 19.4791 52.9593 20.6455V20.6953C52.9593 21.4955 52.8071 22.1953 52.5025 22.7955C52.198 23.3953 51.7616 23.8954 51.1934 24.2955C50.6252 24.6956 49.942 24.9954 49.1436 25.1955C48.3451 25.3954 47.4602 25.4953 46.4892 25.4953H38.2656V7.99609ZM45.4885 15.0707C46.3298 15.0707 46.9978 14.9252 47.4922 14.6333C47.9869 14.3417 48.2342 13.8707 48.2342 13.2209V13.1709C48.2342 12.5878 48.0196 12.1421 47.591 11.8335C47.1621 11.5252 46.5436 11.3709 45.7359 11.3709H41.9759V15.0707H45.4885V15.0707ZM46.5029 22.1207C47.3439 22.1207 48.0031 21.967 48.4818 21.6584C48.9599 21.35 49.1993 20.8707 49.1993 20.2207V20.1709C49.1993 19.5876 48.9764 19.1252 48.5313 18.7832C48.0859 18.4421 47.3687 18.2711 46.3791 18.2711H41.9759V22.121H46.5029V22.1207Z" fill="#FCD535"/>
        <path d="M57.7388 7.99609H61.5486V25.4958H57.7388V7.99609Z" fill="#FCD535"/>
        <path d="M67.3184 7.99609H70.8305L78.9445 18.771V7.99609H82.7045V25.4958H79.4642L71.0781 14.3711V25.4958H67.3184V7.99609Z" fill="#FCD535"/>
        <path d="M94.2382 7.87158H97.7506L105.172 25.4961H101.189L99.6059 21.5714H92.2838L90.7007 25.4961H86.8164L94.2382 7.87158ZM98.2455 18.1711L95.9447 12.4964L93.6447 18.1711H98.2455Z" fill="#FCD535"/>
        <path d="M109.285 7.99609H112.798L120.911 18.771V7.99609H124.671V25.4958H121.431L113.045 14.3711V25.4958H109.285V7.99609V7.99609Z" fill="#FCD535"/>
        <path d="M138.381 25.7957C137.111 25.7957 135.932 25.5622 134.844 25.0959C133.755 24.6296 132.815 23.9918 132.024 23.1833C131.232 22.3751 130.613 21.4209 130.168 20.3209C129.723 19.2208 129.5 18.0458 129.5 16.7958V16.746C129.5 15.496 129.723 14.3254 130.168 13.2336C130.613 12.142 131.232 11.1837 132.024 10.3587C132.815 9.53381 133.763 8.88351 134.868 8.40862C135.973 7.93373 137.194 7.69629 138.53 7.69629C139.337 7.69629 140.075 7.76327 140.743 7.8962C141.411 8.02991 142.017 8.21288 142.561 8.44615C143.106 8.67969 143.608 8.963 144.071 9.2961C144.531 9.62972 144.961 9.99618 145.357 10.3963L142.933 13.2211C142.256 12.6047 141.568 12.1209 140.867 11.7711C140.166 11.4214 139.379 11.2462 138.504 11.2462C137.779 11.2462 137.107 11.388 136.489 11.6713C135.87 11.9546 135.338 12.3461 134.893 12.846C134.448 13.3459 134.102 13.9253 133.854 14.5835C133.607 15.2421 133.483 15.9461 133.483 16.696V16.7457C133.483 17.4956 133.607 18.2043 133.854 18.8705C134.102 19.5375 134.443 20.1205 134.881 20.6204C135.317 21.1203 135.845 21.5165 136.463 21.8082C137.082 22.1001 137.762 22.2455 138.504 22.2455C139.494 22.2455 140.33 22.0623 141.015 21.6956C141.699 21.3294 142.38 20.8292 143.056 20.1956L145.48 22.6706C145.035 23.1541 144.572 23.5876 144.095 23.9704C143.617 24.3541 143.093 24.683 142.524 24.9583C141.955 25.233 141.332 25.4418 140.657 25.583C139.98 25.7246 139.222 25.7957 138.381 25.7957Z" fill="#FCD535"/>
        <path d="M149.964 7.99609H163V11.4212H153.724V14.9711H161.887V18.3959H153.724V22.071H163.125V25.4958H149.964V7.99609Z" fill="#FCD535"/>
    </g>
    <defs>
        <clipPath id="clip0_104_47271">
            <rect width="163" height="33" fill="white"/>
        </clipPath>
    </defs>
</svg>
