<svg width="291" height="62" viewBox="0 0 291 62" fill="none" xmlns="http://www.w3.org/2000/svg">
<path d="M82.3921 40.5384V20.5077H87.9223L98.0705 32.6978H95.5049V20.5077H102.061V40.5384H96.5311L86.3829 28.3483H88.9485V40.5384H82.3921ZM111.574 29.035H120.354V34.1286H111.574V29.035ZM112.03 40.5384H105.303V20.5077H121.523V25.6012H112.03V40.5384ZM128.121 40.5384V25.7443H122.277V20.5077H140.692V25.7443H134.848V40.5384H128.121ZM161.333 40.9963C159.717 40.9963 158.226 40.7483 156.857 40.2523C155.508 39.7372 154.33 39.0123 153.322 38.0775C152.334 37.1427 151.565 36.0363 151.013 34.7581C150.462 33.48 150.187 32.0683 150.187 30.523C150.187 28.9778 150.462 27.5661 151.013 26.288C151.565 25.0098 152.344 23.9033 153.351 22.9686C154.358 22.0338 155.546 21.3184 156.914 20.8224C158.302 20.3073 159.822 20.0498 161.475 20.0498C163.452 20.0498 165.21 20.3837 166.749 21.0513C168.307 21.719 169.59 22.6729 170.597 23.9129L166.293 27.7187C165.666 26.9938 164.981 26.4501 164.24 26.0876C163.518 25.7061 162.71 25.5153 161.817 25.5153C161.076 25.5153 160.401 25.6298 159.793 25.8587C159.204 26.0877 158.701 26.4215 158.283 26.8603C157.864 27.299 157.541 27.8236 157.313 28.4341C157.085 29.0446 156.971 29.7409 156.971 30.523C156.971 31.267 157.085 31.9538 157.313 32.5833C157.541 33.1938 157.864 33.7184 158.283 34.1572C158.701 34.596 159.195 34.9393 159.765 35.1873C160.354 35.4163 161.01 35.5307 161.732 35.5307C162.492 35.5307 163.233 35.4067 163.955 35.1587C164.677 34.8917 165.447 34.4433 166.264 33.8138L170.027 38.4495C168.811 39.2698 167.423 39.8993 165.865 40.3381C164.307 40.7769 162.796 40.9963 161.333 40.9963ZM164.183 37.591V29.9793H170.027V38.4495L164.183 37.591ZM172.893 40.5384V20.5077H182.5C184.362 20.5077 185.968 20.8129 187.317 21.4233C188.685 22.0338 189.74 22.9113 190.481 24.056C191.223 25.1815 191.593 26.5169 191.593 28.0621C191.593 29.6073 191.223 30.9427 190.481 32.0683C189.74 33.1747 188.685 34.0236 187.317 34.615C185.968 35.2064 184.362 35.5021 182.5 35.5021H176.627L179.621 32.7264V40.5384H172.893ZM184.837 40.5384L179.934 33.2415H187.061L192.021 40.5384H184.837ZM179.621 33.4704L176.627 30.4086H182.072C183.003 30.4086 183.687 30.1987 184.125 29.779C184.581 29.3593 184.809 28.787 184.809 28.0621C184.809 27.3372 184.581 26.7649 184.125 26.3452C183.687 25.9255 183.003 25.7157 182.072 25.7157H176.627L179.621 22.6538V33.4704ZM204.595 40.9963C202.98 40.9963 201.479 40.7387 200.092 40.2236C198.723 39.7086 197.535 38.9837 196.528 38.0489C195.521 37.095 194.732 35.979 194.162 34.7009C193.611 33.4227 193.336 32.0301 193.336 30.523C193.336 28.9969 193.611 27.6043 194.162 26.3452C194.732 25.067 195.521 23.9606 196.528 23.0258C197.535 22.072 198.723 21.3375 200.092 20.8224C201.479 20.3073 202.98 20.0498 204.595 20.0498C206.23 20.0498 207.731 20.3073 209.099 20.8224C210.468 21.3375 211.655 22.072 212.663 23.0258C213.67 23.9606 214.449 25.067 215 26.3452C215.57 27.6043 215.855 28.9969 215.855 30.523C215.855 32.0301 215.57 33.4227 215 34.7009C214.449 35.979 213.67 37.095 212.663 38.0489C211.655 38.9837 210.468 39.7086 209.099 40.2236C207.731 40.7387 206.23 40.9963 204.595 40.9963ZM204.595 35.5307C205.223 35.5307 205.802 35.4163 206.334 35.1873C206.885 34.9584 207.361 34.6341 207.76 34.2144C208.178 33.7756 208.501 33.251 208.729 32.6406C208.957 32.011 209.071 31.3052 209.071 30.523C209.071 29.7409 208.957 29.0446 208.729 28.4341C208.501 27.8046 208.178 27.28 207.76 26.8603C207.361 26.4215 206.885 26.0877 206.334 25.8587C205.802 25.6298 205.223 25.5153 204.595 25.5153C203.968 25.5153 203.379 25.6298 202.828 25.8587C202.296 26.0877 201.821 26.4215 201.403 26.8603C201.004 27.28 200.69 27.8046 200.462 28.4341C200.234 29.0446 200.12 29.7409 200.12 30.523C200.12 31.3052 200.234 32.011 200.462 32.6406C200.69 33.251 201.004 33.7756 201.403 34.2144C201.821 34.6341 202.296 34.9584 202.828 35.1873C203.379 35.4163 203.968 35.5307 204.595 35.5307ZM222.647 40.5384L216.262 20.5077H223.189L228.348 37.4193H224.87L230.344 20.5077H236.529L241.632 37.4193H238.297L243.684 20.5077H250.07L243.684 40.5384H236.472L232.311 26.6886H234.249L229.859 40.5384H222.647ZM257.721 27.9477H266.615V32.8123H257.721V27.9477ZM258.177 35.4449H268.155V40.5384H251.564V20.5077H267.784V25.6012H258.177V35.4449ZM270.744 40.5384V20.5077H280.35C282.213 20.5077 283.819 20.8129 285.168 21.4233C286.536 22.0338 287.591 22.9113 288.332 24.056C289.073 25.1815 289.444 26.5169 289.444 28.0621C289.444 29.6073 289.073 30.9427 288.332 32.0683C287.591 33.1747 286.536 34.0236 285.168 34.615C283.819 35.2064 282.213 35.5021 280.35 35.5021H274.478L277.471 32.7264V40.5384H270.744ZM282.688 40.5384L277.785 33.2415H284.911L289.872 40.5384H282.688ZM277.471 33.4704L274.478 30.4086H279.923C280.854 30.4086 281.538 30.1987 281.975 29.779C282.431 29.3593 282.659 28.787 282.659 28.0621C282.659 27.3372 282.431 26.7649 281.975 26.3452C281.538 25.9255 280.854 25.7157 279.923 25.7157H274.478L277.471 22.6538V33.4704Z" fill="white"/>
<path d="M0 1.9375C0 0.867448 0.864136 0 1.9301 0H42.4622C53.1219 0 61.7633 8.67448 61.7633 19.375V60.0625C61.7633 61.1326 60.8992 62 59.8332 62H19.301C8.64136 62 0 53.3255 0 42.625V1.9375Z" fill="#FCD535"/>
<path fill-rule="evenodd" clip-rule="evenodd" d="M18.3359 9.6875L36.5841 32.663V19.5122H43.4273V52.3125L25.1791 29.337V42.4878H18.3359V9.6875Z" fill="#14151B"/>
</svg>
