<?xml version="1.0" encoding="UTF-8"?>
<svg xmlns="http://www.w3.org/2000/svg" xmlns:xlink="http://www.w3.org/1999/xlink" viewBox="0 0 25 25" width="25px" height="25px">
<g id="surface261380">
<path style=" stroke:none;fill-rule:nonzero;fill:rgb(100%,100%,100%);fill-opacity:1;" d="M 23.070312 3.277344 C 22.695312 2.957031 22.105469 2.914062 21.496094 3.15625 C 20.855469 3.414062 3.363281 10.914062 2.652344 11.222656 C 2.523438 11.265625 1.390625 11.691406 1.507812 12.628906 C 1.613281 13.476562 2.519531 13.828125 2.632812 13.867188 L 7.078125 15.390625 C 7.375 16.371094 8.460938 19.996094 8.703125 20.769531 C 8.851562 21.253906 9.097656 21.886719 9.523438 22.015625 C 9.902344 22.160156 10.273438 22.03125 10.515625 21.839844 L 13.234375 19.316406 L 17.625 22.742188 L 17.726562 22.804688 C 18.027344 22.933594 18.3125 23 18.585938 23 C 18.792969 23 18.996094 22.960938 19.191406 22.882812 C 19.847656 22.613281 20.109375 21.984375 20.136719 21.914062 L 23.414062 4.875 C 23.617188 3.964844 23.335938 3.503906 23.070312 3.277344 Z M 11 16 L 9.5 20 L 8 15 L 19.5 6.5 Z M 11 16 "/>
</g>
</svg>
